<svg width="1437" height="312" viewBox="0 0 1437 312" fill="none" xmlns="http://www.w3.org/2000/svg">
<path d="M0 0L34.3283 14.8657C68.6567 29.7315 137.313 59.4629 205.651 74.8533C274.148 90.4186 342.166 91.468 410.663 73.4542C479 55.4404 547.657 18.0137 615.994 11.8926C684.491 5.77138 752.509 30.9557 821.006 46.6959C889.343 62.4361 958 68.7321 1026.34 57.3642C1094.83 45.9963 1162.85 16.9644 1231.35 23.6103C1299.69 30.2561 1368.34 72.9295 1402.67 94.0913L1437 115.428V311.306H1402.67C1368.34 311.306 1299.69 311.306 1231.35 311.306C1162.85 311.306 1094.83 311.306 1026.34 311.306C958 311.306 889.343 311.306 821.006 311.306C752.509 311.306 684.491 311.306 615.994 311.306C547.657 311.306 479 311.306 410.663 311.306C342.166 311.306 274.148 311.306 205.651 311.306C137.313 311.306 68.6567 311.306 34.3283 311.306H0V0Z" fill="#0D0D0D"/>
</svg>
